<?xml version="1.0" standalone="no"?><!DOCTYPE svg PUBLIC "-//W3C//DTD SVG 1.1//EN" "http://www.w3.org/Graphics/SVG/1.1/DTD/svg11.dtd"><svg t="1671636483309" class="icon" viewBox="0 0 1035 1024" version="1.1" xmlns="http://www.w3.org/2000/svg" p-id="1086" xmlns:xlink="http://www.w3.org/1999/xlink" width="202.1484375" height="200"><path d="M972.55 326.096c-24.872-58.824-60.482-111.632-105.828-156.978-45.346-45.345-98.154-80.944-156.977-105.828-60.918-25.764-125.6-38.83-192.254-38.83S386.155 37.527 325.227 63.29c-58.812 24.873-111.632 60.483-156.977 105.828S87.305 267.272 62.42 326.096c-25.764 60.917-38.83 125.6-38.83 192.253s13.066 131.336 38.83 192.265c24.873 58.812 60.483 111.631 105.829 156.977s98.154 80.945 156.977 105.828c60.917 25.764 125.6 38.83 192.264 38.83s131.336-13.066 192.254-38.83c58.823-24.872 111.631-60.483 156.977-105.828 45.346-45.346 80.945-98.154 105.828-156.977 25.764-60.918 38.83-125.6 38.83-192.265s-13.066-131.336-38.83-192.253zM517.491 923.139c-223.196 0-404.779-181.582-404.779-404.779s181.572-404.79 404.78-404.79S922.27 295.152 922.27 518.349s-181.583 404.78-404.78 404.78z m218.63-560.408l-155.63 155.63 155.63 155.629c17.399 17.398 17.399 45.612 0 63.011-8.7 8.7-20.105 13.055-31.5 13.055s-22.8-4.356-31.5-13.055l-155.63-155.63-155.63 155.63c-8.698 8.7-20.104 13.055-31.5 13.055s-22.8-4.356-31.5-13.055c-17.398-17.399-17.398-45.613 0-63.011l155.63-155.63-155.63-155.63c-17.398-17.398-17.398-45.612 0-63.01s45.613-17.4 63.012 0l155.63 155.629 155.629-155.63c17.399-17.398 45.613-17.398 63.011 0s17.399 45.613 0 63.012z" p-id="1087"></path></svg>