<?xml version="1.0" standalone="no"?><!DOCTYPE svg PUBLIC "-//W3C//DTD SVG 1.1//EN" "http://www.w3.org/Graphics/SVG/1.1/DTD/svg11.dtd"><svg t="1671679085567" class="icon" viewBox="0 0 1024 1024" version="1.1" xmlns="http://www.w3.org/2000/svg" p-id="1102" xmlns:xlink="http://www.w3.org/1999/xlink" width="200" height="200"><path d="M223.962 607.898c-52.98 0-95.984-43.004-95.984-95.984s43.004-95.984 95.984-95.984 95.984 43.004 95.984 95.984-43.003 95.984-95.984 95.984zM511.914 607.898c-52.98 0-95.984-43.004-95.984-95.984s43.004-95.984 95.984-95.984 95.984 43.004 95.984 95.984-43.004 95.984-95.984 95.984zM800.038 607.898c-52.98 0-95.984-43.004-95.984-95.984s43.003-95.984 95.984-95.984 95.984 43.004 95.984 95.984-43.176 95.984-95.984 95.984z" p-id="1103"></path></svg>