<?xml version="1.0" standalone="no"?><!DOCTYPE svg PUBLIC "-//W3C//DTD SVG 1.1//EN" "http://www.w3.org/Graphics/SVG/1.1/DTD/svg11.dtd"><svg t="1671170603149" class="icon" viewBox="0 0 1024 1024" version="1.1" xmlns="http://www.w3.org/2000/svg" p-id="1537" xmlns:xlink="http://www.w3.org/1999/xlink" width="200" height="200"><path d="M761.056 532.128c0.512-0.993 1.343-1.823 1.792-2.849 8.8-18.304 5.92-40.703-9.664-55.424L399.936 139.744c-19.265-18.209-49.631-17.345-67.872 1.889-18.209 19.264-17.376 49.63 1.889 67.872l316.96 299.839L335.2 813.632c-19.072 18.399-19.648 48.767-1.247 67.872 9.407 9.791 21.984 14.689 34.56 14.689 12 0 24-4.48 33.312-13.44l350.048-337.376c0.673-0.673 0.927-1.6 1.6-2.303 0.513-0.48 1.056-0.833 1.567-1.344 2.72-2.85 4.16-6.339 6.016-9.602z" p-id="1538"></path></svg>