<?xml version="1.0" standalone="no"?><!DOCTYPE svg PUBLIC "-//W3C//DTD SVG 1.1//EN" "http://www.w3.org/Graphics/SVG/1.1/DTD/svg11.dtd"><svg t="1672883750657" class="icon" viewBox="0 0 1024 1024" version="1.1" xmlns="http://www.w3.org/2000/svg" p-id="1371" xmlns:xlink="http://www.w3.org/1999/xlink" width="200" height="200"><path d="M512 938.667c-235.637 0-426.667-191.03-426.667-426.667S276.363 85.333 512 85.333 938.667 276.363 938.667 512 747.637 938.667 512 938.667z m0-64c200.299 0 362.667-162.368 362.667-362.667S712.299 149.333 512 149.333 149.333 311.701 149.333 512 311.701 874.667 512 874.667zM544 480h128a32 32 0 0 1 0 64H544v128a32 32 0 0 1-64 0V544H352a32 32 0 0 1 0-64h128V352a32 32 0 0 1 64 0v128z" p-id="1372"></path></svg>